HIERARCHY
ROOT hip
{
  OFFSET 0 0 0
  CHANNELS 6 Xposition Yposition Zposition Zrotation Yrotation Xrotation
  JOINT abdomen
  {
    OFFSET 0 20.6881 -0.73152
    CHANNELS 3 Zrotation Xrotation Yrotation
    JOINT chest
    {
      OFFSET 0 11.7043 -0.48768
      CHANNELS 3 Zrotation Xrotation Yrotation
      JOINT neck
      {
        OFFSET 0 22.1894 -2.19456
        CHANNELS 3 Zrotation Xrotation Yrotation
        JOINT head
        {
          OFFSET -0.24384 7.07133 1.2192
          CHANNELS 3 Zrotation Xrotation Yrotation
          JOINT leftEye
          {
            OFFSET 4.14528 8.04674 8.04672
            CHANNELS 3 Zrotation Xrotation Yrotation
            End Site
            {
              OFFSET 1 0 0
            }
          }
          JOINT rightEye
          {
            OFFSET -3.6576 8.04674 8.04672
            CHANNELS 3 Zrotation Xrotation Yrotation
            End Site
            {
              OFFSET 1 0 0
            }
          }
        }
      }
      JOINT rCollar
      {
        OFFSET -2.68224 19.2634 -4.8768
        CHANNELS 3 Zrotation Xrotation Yrotation
        JOINT rShldr
        {
          OFFSET -8.77824 -1.95073 1.46304
          CHANNELS 3 Zrotation Xrotation Yrotation
          JOINT rForeArm
          {
            OFFSET -28.1742 -1.7115 0.48768
            CHANNELS 3 Zrotation Xrotation Yrotation
            JOINT rHand
            {
              OFFSET -22.5879 0.773209 7.07136
              CHANNELS 3 Zrotation Xrotation Yrotation
              JOINT rThumb1
              {
                OFFSET -1.2192 -0.487915 3.41376
                CHANNELS 3 Zrotation Xrotation Yrotation
                JOINT rThumb2
                {
                  OFFSET -3.37035 -0.52449 3.41376
                  CHANNELS 3 Zrotation Xrotation Yrotation
                  End Site
                  {
                    OFFSET -1.78271 -1.18214 1.43049
                  }
                }
              }
              JOINT rIndex1
              {
                OFFSET -7.75947 0.938293 5.60832
                CHANNELS 3 Zrotation Xrotation Yrotation
                JOINT rIndex2
                {
                  OFFSET -2.54057 -0.884171 1.56538
                  CHANNELS 3 Zrotation Xrotation Yrotation
                  End Site
                  {
                    OFFSET -1.62519 -0.234802 1.16502
                  }
                }
              }
              JOINT rMid1
              {
                OFFSET -8.24714 1.18213 3.41376
                CHANNELS 3 Zrotation Xrotation Yrotation
                JOINT rMid2
                {
                  OFFSET -3.10165 -0.590103 1.0647
                  CHANNELS 3 Zrotation Xrotation Yrotation
                  End Site
                  {
                    OFFSET -2.48547 -0.328903 0.83742
                  }
                }
              }
              JOINT rRing1
              {
                OFFSET -8.82822 0.546677 1.51678
                CHANNELS 3 Zrotation Xrotation Yrotation
                JOINT rRing2
                {
                  OFFSET -2.60934 -0.819778 -0.0198488
                  CHANNELS 3 Zrotation Xrotation Yrotation
                  End Site
                  {
                    OFFSET -2.33842 -0.294052 0.168128
                  }
                }
              }
              JOINT rPinky1
              {
                OFFSET -8.27202 -0.0477905 -0.4584
                CHANNELS 3 Zrotation Xrotation Yrotation
                JOINT rPinky2
                {
                  OFFSET -1.82734 -0.647385 -0.700984
                  CHANNELS 3 Zrotation Xrotation Yrotation
                  End Site
                  {
                    OFFSET -1.69225 -0.51767 -0.607171
                  }
                }
              }
            }
          }
        }
      }
      JOINT lCollar
      {
        OFFSET 2.68224 19.2634 -4.8768
        CHANNELS 3 Zrotation Xrotation Yrotation
        JOINT lShldr
        {
          OFFSET 8.77824 -1.95073 1.46304
          CHANNELS 3 Zrotation Xrotation Yrotation
          JOINT lForeArm
          {
            OFFSET 28.1742 -1.7115 0.48768
            CHANNELS 3 Zrotation Xrotation Yrotation
            JOINT lHand
            {
              OFFSET 22.5879 0.773209 7.07136
              CHANNELS 3 Zrotation Xrotation Yrotation
              JOINT lThumb1
              {
                OFFSET 1.2192 -0.487915 3.41376
                CHANNELS 3 Zrotation Xrotation Yrotation
                JOINT lThumb2
                {
                  OFFSET 3.37035 -0.52449 3.41376
                  CHANNELS 3 Zrotation Xrotation Yrotation
                  End Site
                  {
                    OFFSET 1.78271 -1.18214 1.43049
                  }
                }
              }
              JOINT lIndex1
              {
                OFFSET 7.75947 0.938293 5.60832
                CHANNELS 3 Zrotation Xrotation Yrotation
                JOINT lIndex2
                {
                  OFFSET 2.54057 -0.884171 1.56538
                  CHANNELS 3 Zrotation Xrotation Yrotation
                  End Site
                  {
                    OFFSET 1.62519 -0.234802 1.16502
                  }
                }
              }
              JOINT lMid1
              {
                OFFSET 8.24714 1.18213 3.41376
                CHANNELS 3 Zrotation Xrotation Yrotation
                JOINT lMid2
                {
                  OFFSET 3.10165 -0.590103 1.0647
                  CHANNELS 3 Zrotation Xrotation Yrotation
                  End Site
                  {
                    OFFSET 2.48547 -0.328903 0.83742
                  }
                }
              }
              JOINT lRing1
              {
                OFFSET 8.82822 0.546677 1.51678
                CHANNELS 3 Zrotation Xrotation Yrotation
                JOINT lRing2
                {
                  OFFSET 2.60934 -0.819778 -0.0198488
                  CHANNELS 3 Zrotation Xrotation Yrotation
                  End Site
                  {
                    OFFSET 2.33842 -0.294052 0.168128
                  }
                }
              }
              JOINT lPinky1
              {
                OFFSET 8.27202 -0.0477905 -0.4584
                CHANNELS 3 Zrotation Xrotation Yrotation
                JOINT lPinky2
                {
                  OFFSET 1.82734 -0.647385 -0.700984
                  CHANNELS 3 Zrotation Xrotation Yrotation
                  End Site
                  {
                    OFFSET 1.69225 -0.51767 -0.607171
                  }
                }
              }
            }
          }
        }
      }
    }
  }
  JOINT rButtock
  {
    OFFSET -8.77824 4.35084 1.2192
    CHANNELS 3 Zrotation Xrotation Yrotation
    JOINT rThigh
    {
      OFFSET 0 -1.70687 -2.19456
      CHANNELS 3 Zrotation Xrotation Yrotation
      JOINT rShin
      {
        OFFSET 0 -36.8199 0.73152
        CHANNELS 3 Zrotation Xrotation Yrotation
        JOINT rFoot
        {
          OFFSET 0.73152 -45.1104 -5.12064
          CHANNELS 3 Zrotation Xrotation Yrotation
          End Site
          {
            OFFSET -1.1221 -3.69964 12.103
          }
        }
      }
    }
  }
  JOINT lButtock
  {
    OFFSET 8.77824 4.35084 1.2192
    CHANNELS 3 Zrotation Xrotation Yrotation
    JOINT lThigh
    {
      OFFSET 0 -1.70687 -2.19456
      CHANNELS 3 Zrotation Xrotation Yrotation
      JOINT lShin
      {
        OFFSET 0 -36.8199 0.73152
        CHANNELS 3 Zrotation Xrotation Yrotation
        JOINT lFoot
        {
          OFFSET -0.73152 -45.1104 -5.12064
          CHANNELS 3 Zrotation Xrotation Yrotation
          End Site
          {
            OFFSET 1.1221 -3.69964 12.103
          }
        }
      }
    }
  }
}
MOTION
Frames:	4
Frame Time:	0.03333
5.03818029537797 60.104918479919434 -75.50473005976528 -5.377973985478504 -45.877499560572716 -1.1734337564841837 -2.1347399800377542 17.602814755375636 11.196840950749563 -2.4624913031158706 -7.644474077577916 2.8454361042163905 -0.9937891091422703 11.089283400568432 7.572203845970011 0.9878802484582687 -21.054905060021387 16.400711706737148 -0.12484043674134766 -0.01989906245574457 0.22539256071157132 0.1587389323963854 -0.1658386472343492 0.22007357757585033 -0.01239742033359461 -0.028672600527184622 0.2912112250811496 79.04282179264695 59.87553513240697 -22.92877087390897 -25.614201472524762 -46.49539945402709 96.89788567935491 -8.090750953983733 -59.33772603716017 -13.626261545121288 -0.03118600342004353 0.25511679692752637 -0.058639788706351115 -0.06080703974650789 0.026616019895923205 0.020882609696226406 -0.22481727735655643 -0.11307410187467844 0.002556838627111961 7.66522077718183 5.729394902238476 -0.04192423473406717 0.12615796956007255 0.049362924390019304 -0.20069384962086476 3.329482005741674 0.9326278600542738 0.3453292951548201 -0.012134044503939215 0.2142389685186463 0.22814336603894106 10.254755519850642 0.737945697480931 -0.22544402725418441 -0.16361099170872012 0.18849112969925516 -0.3039308249042852 2.1070047162524483 -0.5711190740553099 -0.3273682188347873 -0.1880994343586108 0.11920270255088394 0.08031288607730071 -34.8984076018841 20.600332065094943 -38.09559183161039 22.512506702489834 -17.7787074944291 -44.12280347222893 -0.7444239718261293 7.231473882808402 0.49109833864758595 0.06275460415531356 -0.10756139216253768 -0.2927142135440962 -0.14794541923876697 0.02085600931106038 -0.206082281906623 -0.04388172426151051 -0.22207903851004243 0.12441013482363686 -7.855729267285472 5.11588255155219 -0.658300942642675 0.16419065065367205 -0.056611009079445766 -0.09755444465695497 -2.5172120039816623 0.5903490447766577 0.11039642759619543 -0.1526119859066195 -0.15312046147381522 -0.17778915708477078 -10.849011005945723 0.6055847955765761 0.3835286755528502 0.41209554155003186 -0.10193918598026515 -0.2048689628335937 -2.4197618531116825 -0.600397480345363 0.01693214567416739 -0.0006623682669325647 0.2227251050364169 -0.2786132880026049 -17.30128068653979 -19.65841141250975 -2.361420938542372 -0.7488511083470613 59.541900882019355 1.8952532706130087 -8.496494926533755 -20.114118218838414 -23.863863044871444 0.3461138597748724 0.11788468948448304 -0.02079429748469226 42.86718247634881 -38.54010737298399 22.70291871617145 1.4112694811204902 34.90261841350741 -0.4595446255902724 -6.511139081050408 26.583681938410955 18.309360258973022
5.3139121271669865 58.419257402420044 -72.42811133619398 -5.037261097789819 -44.10341939536443 -1.5097351957426866 -1.8824848722899046 18.701006721076137 10.674334040564524 -2.493484567135273 -7.566446850273337 2.8098721629817804 -0.9806113263557885 11.042597350044103 8.199438046698853 2.6383138192869273 -20.865305838851004 17.158500704582554 -0.027107686794458342 0.15450138698577429 0.2037517333164074 0.23565091787554868 -0.030723738351451185 0.19535085410134292 0.06622104522101403 0.03670799792058728 0.3158194895262064 87.31427650018077 55.64896967777347 -35.10762995653993 -25.05481922478447 -46.924786126389115 97.6597796208915 -14.897204362857044 -60.88515320495075 -20.329368215436784 -0.14322303711879072 -0.038593930544304156 0.16742853384622836 -0.051154541706251826 0.07744996959800755 0.07415931252194236 -0.13415814879056734 -0.07090696853825268 -0.0795636196614356 7.612752971525085 5.697356192389239 0.14176281737943605 0.14444494728913543 -0.09455076224773608 -0.061806755325415616 3.2876050487232678 0.9527759576104593 0.36706754612714926 -0.09589110683107174 0.18333727172280453 0.1710053118154936 10.275247794907973 0.6243698968673739 -0.36244065325342095 -0.20469063086323291 -0.1128924615314384 -0.24357585830346754 2.2368673163853123 -0.5950410645713391 -0.3320280086743227 -0.33682480250365504 0.09416819161293603 -0.07789169073823697 -36.45732314785864 17.560839827831323 -39.242206423431696 18.97659631634969 -11.668498810111146 -34.95672375701767 1.8666181294045534 24.16540052880187 -2.4542056433224104 0.23398296433589041 -0.047879199194966256 -0.259304770105802 -0.2282808235959876 -0.02967367680784106 -0.0058742828513283106 0.19601719775181586 -0.17019414681027525 0.22795526903250127 -7.664413107312476 5.316449348982322 -0.5854605503216327 0.05843466958783917 -0.24653701211293252 -0.26491854527331776 -2.7032097944687457 0.8347492215355812 0.09811473361230758 -0.2519232566037223 0.10736843931848482 -0.02570421632215295 -10.485387102459876 0.6149187826859274 0.1405486445327605 0.5196630968910784 -0.011608920350641594 -0.18367189763128228 -2.3907715420663864 -0.581005452713786 -0.05446483557618082 -0.07828490686318873 -0.177404985624384 -0.07585874896480616 -17.26634768402976 -17.10280734209027 -2.158886406301042 -0.20224782437874841 60.42531071907963 1.1512453533568685 -9.431786880529451 -21.606558948715808 -25.2956107137841 0.19212751174119938 -0.043954561825706354 0.01932025728443888 43.80621395891509 -37.97921223834254 23.843654222664668 0.5630754057297093 37.679267896036016 0.11502689564706739 -3.746861205542813 25.104795718941453 9.62642336621272
5.764041934162378 56.4589262008667 -70.09879143442959 -7.228384075982617 -42.602382872416584 -0.6053413100048357 -0.08180602946288897 19.28413753656056 8.860649877227571 -1.8912046759824837 -7.87327004684771 1.9196857110477907 -1.1106043404131174 10.883938885813876 7.5411708814760585 4.3742290218472935 -21.587417343566845 17.359190445417745 -0.11869396017942377 0.2167547192890324 -0.03549613293079926 0.19352615305631815 -0.03940624280785966 -0.10060193632639715 0.12228937442656113 -0.022828146392622227 0.18716726027924951 92.98201528478154 54.431280137449015 -42.4045601034855 -24.91772025266939 -46.717121054864045 96.14944038029408 -9.321218924471639 -55.972181059487646 -14.66322428000721 -0.16127319938272458 -0.03636696870976266 0.20126160909562205 -0.10037245797854058 0.11427490782770486 -0.12401200950021916 -0.19215019010367793 -0.2038226632301124 -0.001478469151043307 7.713716827836213 5.596822637995821 0.15591416892690912 0.16119000981306794 -0.056853720918819226 0.10940837136364433 3.1156018889587176 0.8980115008452971 0.3056147333389578 -0.13990191099572494 0.1305678705255207 0.1613116725576588 10.283573795506218 0.5970382545733331 -0.2736447789486702 -0.1448565195474816 -0.1640201627286862 -0.06665198746895953 2.203627773902622 -0.6153618378474791 -0.4675577181471668 -0.340378795388736 0.02733447041924392 -0.15778985626687098 -36.848928628826734 17.218386095677932 -38.49329325641272 16.502580563113302 -8.99492029725262 -30.616804482918642 2.4654361818652037 34.58831018337635 -4.483163708919827 0.25755031862360783 -0.20126918633673255 0.019989135575424113 -0.32249474545985096 0.05100499791602557 0.0029349536306956356 0.12872761479187828 -0.055713292770838654 0.12628149993451457 -7.610365820410165 5.184915273493508 -0.5539998452309077 0.10644727091503224 -0.37826094551633077 -0.2429742680479775 -2.8842268829470084 1.1093634871399964 -0.018761168948276313 -0.3690132962669566 0.2654700296879434 -0.19129425534288427 -10.339480601410065 0.7316638977960761 0.007792178625926734 0.34465035834306496 -0.1606816943284309 -0.08707253219979193 -2.223190289459185 -0.5906554427939562 0.028537384125959527 -0.08205260996409701 -0.24206382517595595 0.013762724455869912 -15.592304176952778 -14.692372112290238 -2.287247858920384 0.049228108195190884 61.24950281603591 1.0162576567472619 -10.26358183180559 -22.02218108235296 -27.15410518694457 -0.033888143649576936 0.01594886523795001 0.04194344464110784 45.3614002216028 -39.06289688224594 27.96056782036278 0.24293269994357564 40.66208322356687 -0.3164047780411383 -2.169948964878935 22.603269671275548 2.7959125369787436
6.416789349168539 56.531500816345215 -68.53339073713869 -9.561416187013478 -40.39238637399975 1.0861396700231896 1.7587784070333379 19.49139621183001 6.524016122069997 -0.5919479493726754 -8.311688790613427 1.497917794539801 -1.2507780715934678 11.240934090710224 7.25164770029568 5.5737109853917906 -23.316363618739683 17.21694492576306 -0.1474095695540383 0.26915336928043143 -0.14323340246446475 0.021397915452592134 -0.06762895798432259 -0.14996173910652233 0.23335560078845416 -0.04613750095661301 0.03938576891561615 98.6729425616145 52.948644144125176 -49.36583426404914 -25.274949391544812 -46.09831274625006 94.7066517105881 -5.104191402127243 -51.26354768342382 -9.948259318582782 -0.1535515638043194 -0.07752003239785307 0.2910338269257144 -0.12154593768387432 0.22458278308852814 -0.21239545777297753 -0.10507755118218022 -0.12352802656450029 0.09918491219745751 7.610147254356725 5.488506509929997 0.1496435750211614 0.17290132964040683 -0.07667482316849045 0.14976945327313063 2.9994698900482835 0.8511622728328276 0.29518780924069865 -0.1784816208727337 0.12715394987927792 0.210991320290011 10.42536681512839 0.6382768023477545 -0.18827189663515362 -0.08450011220363587 -0.2152588544999467 0.05143451276115624 2.156430099520776 -0.6163390885073199 -0.43704622258808845 -0.3676597982333834 -0.03110270712868111 -0.1754892242839012 -38.19962244285885 16.861004985093476 -37.15662865093581 15.009779540757194 -7.98064318192125 -28.453847497315685 2.7163197022503502 37.66988321611642 -5.955579177924387 0.17646978331662116 -0.16687203351143098 0.0466340236927612 -0.2750961141060186 0.15797571211748937 -0.06068228207244938 0.18161526363916797 0.0635324186274752 -0.006479341562256237 -7.650236195916468 5.251809292450967 -0.54775897332022 0.09942066044552873 -0.35473137071245997 -0.19928032062778944 -3.0603174840429883 1.2739028509673094 -0.10124637534675843 -0.3969894309422115 0.26380196942657935 -0.2431465969223881 -10.230535669053776 0.8496368461312405 -0.06855642296841627 0.16434142174351482 -0.2344674275192853 0.007794099616630801 -2.1238972681737707 -0.5347079225593537 0.012712796314392014 -0.11308792233557713 -0.2045709958310519 0.024535106715743615 -14.428043791410746 -13.265899056964123 -2.609870136818644 -0.33336835325765835 62.017311701393716 1.6026190449873958 -10.241221500010262 -21.824751049299156 -27.97948402926913 -0.08235143074028507 0.1608560775956778 0.11697051135275915 48.574409999636 -41.16174912739374 31.538688775573604 0.18870313236779002 44.11079941476263 -0.9381293639873074 -0.9826333825152296 20.30653660058872 -1.3529176809371903
